{"title":"03032016.MyWifeIsMyPornstar.Allie.Haze.1080p.x265.HEVC.MAjUS","uid":13889418,"size":420659193,"categoryP":"porn","categoryS":"hd___movies","magnet":"?xt=urn:btih:7ceb4b4e995e871c91914cf1e1dc70a0935124b8&amp;dn=03032016.MyWifeIsMyPornstar.Allie.Haze.1080p.x265.HEVC.MAjUS&amp;tr=udp%3A%2F%2Ftracker.leechers-paradise.org%3A6969&amp;tr=udp%3A%2F%2Fzer0day.ch%3A1337&amp;tr=udp%3A%2F%2Fopen.demonii.com%3A1337&amp;tr=udp%3A%2F%2Ftracker.coppersurfer.tk%3A6969&amp;tr=udp%3A%2F%2Fexodus.desync.com%3A6969","seeders":0,"leechers":1,"uploader":"MAjUS-HEVC","files":1,"time":1458208974,"description":"http://imgsnaps.com/image/yvE\r\n  \nhttp://imgsnaps.com/image/yvH\r\n\r\nFormat                      : Matroska\r\nFormat version              : Version 4 / Version 2\r\nFile size                   : 401 MiB\r\nDuration                    : 30mn 16s\r\nOverall bit rate            : 1 853 Kbps\r\nEncoded date                : UTC 2016-03-17 03:46:21\r\nWriting application         : mkvmerge v8.6.1 ('Flying') 32bit\r\nWriting library             : libebml v1.3.3 + libmatroska v1.4.4\r\n\r\nVideo\r\nID                          : 1\r\nFormat                      : HEVC\r\nFormat/Info                 : High Efficiency Video Coding\r\nFormat profile              :   @Main\r\nCodec ID                    : V_MPEGH/ISO/HEVC\r\nDuration                    : 30mn 15s\r\nBit rate                    : 1 811 Kbps\r\nWidth                       : 1 920 pixels\r\nHeight                      : 1 080 pixels\r\nDisplay aspect ratio        : 16:9\r\nFrame rate mode             : Constant\r\nFrame rate                  : 24.000 fps\r\nColor space                 : YUV\r\nChroma subsampling          : 4:2:0\r\nBit depth                   : 8 bits\r\nBits/(Pixel*Frame)          : 0.036\r\nStream size                 : 392 MiB (98%)\r\n\r\nAudio\r\nID                          : 2\r\nFormat                      : AAC\r\nFormat/Info                 : Advanced Audio Codec\r\nFormat profile              : LC\r\nCodec ID                    : A_AAC\r\nDuration                    : 30mn 16s\r\nBit rate                    : 40.1 Kbps\r\nChannel(s)                  : 2 channels\r\nChannel positions           : Front: L R\r\nSampling rate               : 48.0 KHz\r\nFrame rate                  : 46.875 fps (1024 spf)\r\nCompression mode            : Lossy\r\nDelay relative to video     : 9ms\r\nStream size                 : 8.69 MiB (2%)\r\nDefault                     : Yes\r\nForced                      : No","torrent":{"xt":"urn:btih:7ceb4b4e995e871c91914cf1e1dc70a0935124b8","amp;dn":"03032016.MyWifeIsMyPornstar.Allie.Haze.1080p.x265.HEVC.MAjUS","amp;tr":["udp%3A%2F%2Ftracker.leechers-paradise.org%3A6969","udp%3A%2F%2Fzer0day.ch%3A1337","udp%3A%2F%2Fopen.demonii.com%3A1337","udp%3A%2F%2Ftracker.coppersurfer.tk%3A6969","udp%3A%2F%2Fexodus.desync.com%3A6969"],"infoHash":"7ceb4b4e995e871c91914cf1e1dc70a0935124b8","infoHashBuffer":{"type":"Buffer","data":[124,235,75,78,153,94,135,28,145,145,76,241,225,220,112,160,147,81,36,184]},"announce":[],"urlList":[]}}